<svg width="22" height="22" viewBox="0 0 22 22" fill="none" xmlns="http://www.w3.org/2000/svg">
<path d="M11 22C4.9247 22 0 17.0753 0 11C0 4.9247 4.9247 0 11 0C17.0753 0 22 4.9247 22 11C22 17.0753 17.0753 22 11 22ZM11 19.8C13.3339 19.8 15.5722 18.8729 17.2225 17.2225C18.8729 15.5722 19.8 13.3339 19.8 11C19.8 8.66609 18.8729 6.42778 17.2225 4.77746C15.5722 3.12714 13.3339 2.2 11 2.2C8.66609 2.2 6.42778 3.12714 4.77746 4.77746C3.12714 6.42778 2.2 8.66609 2.2 11C2.2 13.3339 3.12714 15.5722 4.77746 17.2225C6.42778 18.8729 8.66609 19.8 11 19.8ZM11 8.8C11.2917 8.8 11.5715 8.91589 11.7778 9.12218C11.9841 9.32847 12.1 9.60826 12.1 9.9V15.4C12.1 15.6917 11.9841 15.9715 11.7778 16.1778C11.5715 16.3841 11.2917 16.5 11 16.5C10.7083 16.5 10.4285 16.3841 10.2222 16.1778C10.0159 15.9715 9.9 15.6917 9.9 15.4V9.9C9.9 9.60826 10.0159 9.32847 10.2222 9.12218C10.4285 8.91589 10.7083 8.8 11 8.8ZM11 7.7C10.7083 7.7 10.4285 7.58411 10.2222 7.37782C10.0159 7.17153 9.9 6.89174 9.9 6.6C9.9 6.30826 10.0159 6.02847 10.2222 5.82218C10.4285 5.61589 10.7083 5.5 11 5.5C11.2917 5.5 11.5715 5.61589 11.7778 5.82218C11.9841 6.02847 12.1 6.30826 12.1 6.6C12.1 6.89174 11.9841 7.17153 11.7778 7.37782C11.5715 7.58411 11.2917 7.7 11 7.7Z" fill="#1188ED"/>
</svg>
