<svg width="567" height="24" viewBox="0 0 567 24" fill="none" xmlns="http://www.w3.org/2000/svg">
<path d="M17.5542 0.103973L32.7061 0.103973L24.2884 23.6736L9.13647 23.6736L17.5542 0.103973Z" fill="#7B90B7" fill-opacity="0.2"/>
<path d="M39.4402 0.103973L54.5921 0.103973L46.1744 23.6736L31.0225 23.6736L39.4402 0.103973Z" fill="#7B90B7" fill-opacity="0.2"/>
<path d="M61.3264 0.103973L76.4783 0.103973L68.0606 23.6736L52.9087 23.6736L61.3264 0.103973Z" fill="#7B90B7" fill-opacity="0.2"/>
<path d="M83.2124 0.103973L98.3643 0.103973L89.9466 23.6736L74.7947 23.6736L83.2124 0.103973Z" fill="#7B90B7" fill-opacity="0.2"/>
<path d="M105.098 0.103973L120.25 0.103973L111.833 23.6736L96.6807 23.6736L105.098 0.103973Z" fill="#7B90B7" fill-opacity="0.2"/>
<path d="M126.985 0.103973L142.137 0.103973L133.719 23.6736L118.567 23.6736L126.985 0.103973Z" fill="#7B90B7" fill-opacity="0.2"/>
<path d="M148.871 0.103973L164.023 0.103973L155.605 23.6736L140.453 23.6736L148.871 0.103973Z" fill="#7B90B7" fill-opacity="0.2"/>
<path d="M170.757 0.103973L185.909 0.103973L177.491 23.6736L162.339 23.6736L170.757 0.103973Z" fill="#7B90B7" fill-opacity="0.2"/>
<path d="M192.643 0.103973L207.795 0.103973L199.377 23.6736L184.225 23.6736L192.643 0.103973Z" fill="#7B90B7" fill-opacity="0.2"/>
<path d="M214.529 0.103973L229.681 0.103973L221.263 23.6736L206.111 23.6736L214.529 0.103973Z" fill="#7B90B7" fill-opacity="0.2"/>
<path d="M236.415 0.103973L251.567 0.103973L243.149 23.6736L227.997 23.6736L236.415 0.103973Z" fill="#7B90B7" fill-opacity="0.2"/>
<path d="M258.301 0.103973L273.453 0.103973L265.035 23.6736L249.883 23.6736L258.301 0.103973Z" fill="#7B90B7" fill-opacity="0.2"/>
<path d="M280.187 0.103973L295.339 0.103973L286.921 23.6736L271.769 23.6736L280.187 0.103973Z" fill="#7B90B7" fill-opacity="0.2"/>
<path d="M302.073 0.103973L317.225 0.103973L308.807 23.6736L293.656 23.6736L302.073 0.103973Z" fill="#7B90B7" fill-opacity="0.2"/>
<path d="M323.959 0.103973L339.111 0.103973L330.693 23.6736L315.542 23.6736L323.959 0.103973Z" fill="#7B90B7" fill-opacity="0.2"/>
<path d="M345.845 0.103973L360.997 0.103973L352.58 23.6736L337.428 23.6736L345.845 0.103973Z" fill="#7B90B7" fill-opacity="0.2"/>
<path d="M367.731 0.103973L382.883 0.103973L374.466 23.6736L359.314 23.6736L367.731 0.103973Z" fill="#7B90B7" fill-opacity="0.2"/>
<path d="M389.617 0.103973L404.769 0.103973L396.352 23.6736L381.2 23.6736L389.617 0.103973Z" fill="#7B90B7" fill-opacity="0.2"/>
<path d="M411.504 0.103973L426.656 0.103973L418.238 23.6736L403.086 23.6736L411.504 0.103973Z" fill="#7B90B7" fill-opacity="0.2"/>
<path d="M433.39 0.103973L448.542 0.103973L440.124 23.6736L424.972 23.6736L433.39 0.103973Z" fill="#7B90B7" fill-opacity="0.2"/>
<path d="M455.276 0.103973L470.428 0.103973L462.01 23.6736L446.858 23.6736L455.276 0.103973Z" fill="#7B90B7" fill-opacity="0.2"/>
<path d="M477.162 0.103973L492.314 0.103973L483.896 23.6736L468.744 23.6736L477.162 0.103973Z" fill="#7B90B7" fill-opacity="0.2"/>
<path d="M499.048 0.103973L514.2 0.103973L505.782 23.6736L490.63 23.6736L499.048 0.103973Z" fill="#7B90B7" fill-opacity="0.2"/>
<path d="M520.934 0.103973L536.086 0.103973L527.668 23.6736L512.516 23.6736L520.934 0.103973Z" fill="#7B90B7" fill-opacity="0.2"/>
<path d="M542.82 0.103973L557.972 0.103973L549.554 23.6736L534.402 23.6736L542.82 0.103973Z" fill="#7B90B7" fill-opacity="0.2"/>
<path d="M0.71875 0.103973L10.82 0.103973L2.40229 23.6736L0.71875 23.6736V0.103973Z" fill="#7B90B7" fill-opacity="0.2"/>
<path d="M566.39 23.6736L556.288 23.6736L564.706 0.103972L566.39 0.103972L566.39 23.6736Z" fill="#7B90B7" fill-opacity="0.2"/>
</svg>
