<svg width="62" height="61" viewBox="0 0 62 61" fill="none" xmlns="http://www.w3.org/2000/svg">
<path d="M55.8098 47.4539C55.7865 46.2172 55.2363 44.2091 54.4174 43.5689C54.3368 43.5049 54.2417 43.4613 54.1404 43.442C54.0391 43.4227 53.9346 43.4282 53.836 43.4581C53.7373 43.4879 53.6474 43.5413 53.5741 43.6134C53.5007 43.6856 53.4462 43.7744 53.415 43.8723C53.1673 44.641 52.8687 45.3926 52.5212 46.1221C51.5955 48.2823 50.2141 50.2193 48.4706 51.8017C46.3006 53.7995 43.7173 55.2239 41.1934 56.2369C40.5631 56.4915 39.9405 56.7177 39.3283 56.9209L39.3128 56.926C38.9046 57.0623 38.5016 57.1857 38.1064 57.3014L38.0986 57.304L37.5303 57.4659L37.4993 57.4736C37.1169 57.5765 36.745 57.6742 36.3807 57.7616L36.3368 57.7719L35.8408 57.8876L35.7995 57.8979C35.4507 57.975 35.1175 58.047 34.792 58.1113L34.7274 58.1241C34.2806 58.2091 33.8328 58.2889 33.3841 58.3633L33.3117 58.3735L32.9604 58.425L32.9165 58.4353C32.6756 58.4693 32.4345 58.5018 32.1932 58.533L31.8315 58.5767C31.3653 58.6336 30.8975 58.6765 30.4288 58.7052H30.4184C19.8527 59.8082 33.0999 62.112 43.0637 60.3688L43.1309 60.3559C43.7221 60.2495 44.3104 60.1278 44.8953 59.9908C44.9883 59.9651 45.0865 59.9445 45.1794 59.9214C46.4184 59.6241 47.6201 59.1903 48.7625 58.6281C54.9263 55.6584 55.523 50.6987 55.523 50.6987C55.7297 49.7577 55.833 48.6881 55.8098 47.4539ZM29.2534 40.1724C29.0775 39.6725 28.8153 39.2069 28.4784 38.7969C27.3262 37.0099 25.7246 35.3978 24.1022 34.0454C23.2467 33.3126 22.3468 32.6325 21.4079 32.009C19.3231 30.5769 17.6879 29.7464 17.6879 29.7464H17.6827C15.2028 28.5123 12.9398 29.7207 12.343 32.5361C12.0029 34.0582 11.9681 35.6322 12.2407 37.1676C12.5134 38.7031 13.088 40.1699 13.9318 41.4837C15.1201 43.3812 16.9517 44.2811 19.1449 44.4842C20.514 44.6128 21.8909 44.6874 23.2653 44.7851C24.3838 44.8108 25.4998 44.8879 26.5874 44.5202C28.0211 44.0369 29.1268 43.1678 29.3722 41.6328C29.4532 41.1439 29.4107 40.6426 29.2534 40.1724ZM37.9565 44.5305C39.522 44.7362 41.0849 44.9882 42.6633 45.0782C44.7816 45.2016 46.3833 44.5254 47.5716 43.2527C49.057 41.6585 49.7416 39.8048 49.6253 37.7247C49.5091 35.6318 47.6646 34.3951 45.1691 34.827C42.9397 35.2101 40.9635 36.074 38.964 36.8711C37.197 37.573 35.5385 38.4189 34.2417 39.6171C32.4153 41.3037 33.4512 43.5381 36.3652 44.24C36.887 44.366 37.4244 44.4354 37.9565 44.5305ZM0 31.8676C0.0594161 30.9034 -0.0852491 29.7799 0.0981656 28.6588C0.405579 26.7768 1.41049 25.4063 3.1103 24.5502C3.53138 24.3393 3.78713 24.1208 3.88529 23.6014C4.62412 19.5596 6.25419 15.888 8.66441 12.5558C8.94082 12.1752 9.1604 11.913 8.80649 11.4142C8.35441 10.7842 8.67733 10.2057 9.14749 9.67866C12.5445 5.88879 16.6365 3.0811 21.5009 1.58727C33.1077 -1.97634 43.3376 0.461106 52.0743 8.89446C52.8803 9.67351 53.9575 10.4577 52.9268 11.8256C52.7563 12.0518 53.0611 12.2524 53.1929 12.4298C55.6848 15.7715 57.3608 19.6447 58.0882 23.7428C58.1683 24.2056 58.4551 24.3496 58.7909 24.5167C60.8911 25.576 61.9219 27.3244 61.9322 29.6204C61.9399 31.6928 62.1466 33.778 61.7979 35.84C61.2993 38.8046 58.2665 40.8718 55.3318 40.2676C54.4406 40.0824 54.2055 39.4011 54.2107 38.5706C54.2262 35.1664 54.2934 31.7648 54.2107 28.3632C53.9911 19.2227 49.8449 12.3372 41.8108 7.94314C28.375 0.589664 11.1366 8.74019 8.17617 23.7325C7.66467 26.3397 7.7525 28.9571 7.78092 31.5822C7.80675 34.0248 7.78092 36.47 7.71892 38.9126C7.69825 39.7713 7.19193 40.2547 6.27227 40.2984C2.52647 40.4707 0.00774992 38.1027 0 34.3745L0 31.8676Z" fill="url(#paint0_radial_42_112)"/>
<path d="M54.1094 43.9628L54.1063 43.9604C54.0892 43.9468 54.0688 43.9373 54.0468 43.9332C54.0248 43.929 54.0022 43.9302 53.9808 43.9366C53.9595 43.9431 53.9403 43.9546 53.9248 43.9698C53.9093 43.9851 53.8979 44.0037 53.8915 44.0239L53.8909 44.0257C53.6374 44.8123 53.3321 45.5815 52.9769 46.3281C52.0232 48.5501 50.6016 50.5424 48.8082 52.1705C46.5817 54.22 43.9417 55.6726 41.3801 56.7008M54.1094 43.9628L39.4711 57.4003L39.4857 57.3954C39.4857 57.3954 39.4857 57.3954 39.4858 57.3954C40.107 57.1893 40.7394 56.9595 41.3801 56.7008M54.1094 43.9628C54.3948 44.1859 54.6995 44.7235 54.9371 45.4443C55.1667 46.1408 55.2993 46.9022 55.3098 47.4633C55.3325 48.6642 55.2317 49.6941 55.0346 50.5914L55.0295 50.615L55.0268 50.6376L55.0267 50.6381L55.0266 50.6385L55.0266 50.639L55.0259 50.6442C55.025 50.6505 55.0234 50.6615 55.021 50.6768C55.0161 50.7074 55.0079 50.7555 54.9951 50.8193C54.9695 50.947 54.9257 51.1374 54.8542 51.3774C54.7113 51.8574 54.4582 52.5341 54.0199 53.3019C53.146 54.8329 51.5283 56.7405 48.5455 58.1776L48.5417 58.1795C47.4326 58.7254 46.2657 59.1465 45.0628 59.4352L45.0587 59.4362C45.0382 59.4413 45.0104 59.4478 44.9789 59.4552C44.9153 59.4701 44.8366 59.4886 44.7722 59.5061C44.1988 59.6402 43.622 59.7595 43.0423 59.8638L43.0369 59.8648L42.9737 59.8769C38.0499 60.7378 32.3042 60.5983 29.1182 60.1101C28.3586 59.9937 27.7684 59.8609 27.3774 59.7263C27.4556 59.7012 27.5449 59.6752 27.6465 59.6485C28.2356 59.494 29.1469 59.3414 30.4451 59.2052L30.4593 59.2043C30.9382 59.175 31.416 59.1312 31.8922 59.073L32.2532 59.0294L32.2572 59.0289C32.5004 58.9975 32.7435 58.9646 32.9864 58.9304L33.0086 58.9272L33.0305 58.9221L33.0538 58.9166L33.3821 58.8686L33.3842 58.8683L33.4545 58.8583L33.4545 58.8584L33.4659 58.8565C33.9185 58.7815 34.3702 58.7011 34.8208 58.6154L34.825 58.6145L34.8888 58.6018C35.2199 58.5364 35.5576 58.4635 35.9074 58.3861L35.9075 58.3863L35.9202 58.3831L35.9544 58.3745L35.9615 58.3728L36.4504 58.2588L36.4508 58.2587L36.4947 58.2485L36.4974 58.2478C36.8668 58.1592 37.2424 58.0605 37.6246 57.9577L37.6509 57.9512L37.6592 57.9491L37.6673 57.9468L38.2357 57.7848L38.2459 57.7819M54.1094 43.9628L38.2459 57.7819M41.3801 56.7008C41.3803 56.7007 41.3805 56.7006 41.3806 56.7006L41.1934 56.2369L41.3797 56.7009C41.3798 56.7009 41.38 56.7008 41.3801 56.7008ZM38.2459 57.7819L38.2554 57.7787M38.2459 57.7819L38.2554 57.7787M38.2554 57.7787C38.6516 57.6627 39.0577 57.5383 39.4703 57.4005L38.2554 57.7787ZM0.591626 28.7394L0.591605 28.7396C0.507121 29.2559 0.496814 29.7818 0.502554 30.3167C0.503852 30.4376 0.506044 30.5604 0.508251 30.6841C0.515436 31.0868 0.522788 31.4988 0.5 31.8827V34.374C0.503749 36.1229 1.09374 37.5075 2.07745 38.4354C3.06169 39.3638 4.48783 39.8798 6.24853 39.799L0.591626 28.7394ZM0.591626 28.7394C0.873249 27.0153 1.77831 25.7812 3.33447 24.9971C3.56525 24.8815 3.8018 24.7397 3.99369 24.5224C4.19318 24.2965 4.31422 24.0243 4.3766 23.6943L4.37714 23.6913M0.591626 28.7394L4.37714 23.6913M4.37714 23.6913C5.10169 19.7276 6.70006 16.1247 9.06954 12.8488L8.66452 12.5558L9.06895 12.8496C9.07998 12.8344 9.09186 12.8183 9.1044 12.8013C9.2192 12.6456 9.38859 12.4158 9.45601 12.1541C9.54817 11.7963 9.44942 11.4563 9.21427 11.1248L9.21428 11.1248M4.37714 23.6913L9.21428 11.1248M9.21428 11.1248L9.21271 11.1227M9.21428 11.1248L9.21271 11.1227M9.21271 11.1227C9.07642 10.9328 9.07066 10.789 9.11176 10.6457C9.16284 10.4677 9.29871 10.2603 9.5202 10.0119C12.8643 6.28135 16.8808 3.52912 21.6476 2.06525C33.0807 -1.44504 43.1213 0.947419 51.7268 9.25397C51.8098 9.33424 51.8884 9.40798 51.9644 9.4792C52.0923 9.5992 52.2125 9.71203 52.3335 9.83681C52.5183 10.0274 52.6577 10.2005 52.7456 10.3697C52.8294 10.531 52.8632 10.6823 52.8449 10.844C52.8261 11.0107 52.7468 11.2336 52.5275 11.5247C52.4124 11.6773 52.3579 11.8608 52.3818 12.0524C52.403 12.2229 52.4811 12.3541 52.5387 12.4353C52.5965 12.5168 52.6638 12.5884 52.706 12.6333L52.7074 12.6348C52.7603 12.6911 52.7799 12.7123 52.7914 12.7279L52.792 12.7287M9.21271 11.1227L52.792 12.7287M52.792 12.7287C55.2375 16.008 56.8821 19.8088 57.5959 23.8301M52.792 12.7287L61.3048 35.7571M61.3048 35.7571L61.3049 35.7567C61.5528 34.2906 61.5106 32.8317 61.4668 31.3186C61.4507 30.7616 61.4344 30.1974 61.4322 29.6227C61.4274 28.5504 61.185 27.6316 60.7182 26.8648C60.2519 26.0991 59.5449 25.4573 58.5669 24.9638C58.5665 24.9636 58.5661 24.9634 58.5657 24.9632L58.5484 24.9546C58.3949 24.8783 58.1817 24.7724 58.0036 24.6072C57.7968 24.4154 57.6541 24.164 57.5959 23.8301M61.3048 35.7571C60.8534 38.4412 58.0912 40.3247 55.4335 39.778C55.1145 39.7117 54.9612 39.5743 54.8695 39.4134C54.7633 39.2273 54.7083 38.9525 54.7107 38.5737L54.7107 38.5729M61.3048 35.7571L54.7107 38.5729M57.5959 23.8301C57.5958 23.8294 57.5957 23.8287 57.5956 23.8281L58.0879 23.7429L57.5959 23.8302C57.5959 23.8302 57.5959 23.8301 57.5959 23.8301ZM54.7107 38.5729C54.7146 37.7041 54.722 36.8339 54.7294 35.9626C54.7508 33.4301 54.7722 30.8892 54.7105 28.3512M54.7107 38.5729L7.68552 23.6363M7.68552 23.6363L7.68564 23.6357C10.7111 8.31439 28.3163 -0.0123806 42.0507 7.50446C50.243 11.9851 54.4867 19.0341 54.7105 28.3512M7.68552 23.6363C7.20969 26.0616 7.24128 28.4937 7.27217 30.8723C7.27528 31.1113 7.27837 31.3498 7.28095 31.5876C7.3067 34.0232 7.28096 36.4622 7.21908 38.8999L7.21906 38.9005M7.68552 23.6363L7.21906 38.9005M54.7105 28.3512L54.2141 28.3631L54.7105 28.351C54.7105 28.3511 54.7105 28.3511 54.7105 28.3512ZM7.21906 38.9005C7.21108 39.2322 7.11326 39.4291 6.98699 39.5499M7.21906 38.9005L6.98699 39.5499M6.98699 39.5499C6.85601 39.6753 6.62961 39.7807 6.2493 39.7989L6.98699 39.5499ZM26.9626 59.9101C26.9624 59.91 26.9637 59.9088 26.9666 59.9063C26.9642 59.9089 26.9627 59.9101 26.9626 59.9101ZM28.0581 39.0678L28.0737 39.092L28.092 39.1143C28.3911 39.4783 28.624 39.8913 28.7804 40.3347C28.9114 40.7282 28.946 41.1457 28.8789 41.5512L28.8785 41.5539C28.6737 42.8345 27.7659 43.5953 26.4277 44.0464L26.4273 44.0466C25.5425 44.3457 24.6372 44.3213 23.6227 44.294C23.5127 44.2911 23.4015 44.2881 23.2888 44.2855C22.8756 44.2561 22.4645 44.229 22.055 44.202C21.0951 44.1386 20.1435 44.0758 19.1916 43.9864L19.191 43.9864C17.1172 43.7943 15.4437 42.956 14.3555 41.2183L14.3556 41.2183L14.3525 41.2135C13.5444 39.9552 12.9941 38.5506 12.733 37.0802C12.4719 35.6099 12.5052 34.1027 12.831 32.6452L12.831 32.6452L12.8322 32.6398C13.1075 31.341 13.7505 30.4801 14.5394 30.0652C15.3222 29.6535 16.3362 29.6348 17.46 30.1941L17.5652 30.2464H17.5657C17.6101 30.2698 17.6681 30.3006 17.7387 30.3387C17.9206 30.4368 18.1859 30.583 18.516 30.7737C19.1765 31.1552 20.0952 31.7139 21.1247 32.4212L21.1247 32.4212L21.1313 32.4256C22.0533 33.0378 22.9369 33.7056 23.777 34.4251L23.777 34.4252L23.7821 34.4294C25.3825 35.7636 26.9433 37.3387 28.0581 39.0678ZM42.6924 44.579L42.6918 44.579C41.4846 44.5102 40.2913 44.3455 39.0758 44.1779C38.7303 44.1302 38.383 44.0823 38.033 44.0363C37.8555 44.0046 37.685 43.9768 37.5191 43.9498C37.1611 43.8914 36.8241 43.8364 36.4826 43.7539L36.4823 43.7539C35.1139 43.4243 34.2888 42.7588 33.9799 42.0886C33.6916 41.4628 33.797 40.7083 34.581 39.9844L34.581 39.9843C35.8114 38.8475 37.4036 38.029 39.1486 37.3358L39.1492 37.3355C39.3823 37.2426 39.614 37.1492 39.8449 37.0562C41.6166 36.3426 43.3385 35.6489 45.2538 35.3198L45.2544 35.3197C46.406 35.1203 47.3558 35.3144 48.0151 35.7471C48.6651 36.1736 49.0764 36.8584 49.1261 37.7524L49.1261 37.7526C49.2344 39.6907 48.6025 41.4127 47.2061 42.9114C46.1262 44.0681 44.6726 44.6944 42.6924 44.579Z" stroke="#3C73FF" stroke-opacity="0.76"/>
<defs>
<radialGradient id="paint0_radial_42_112" cx="0" cy="0" r="1" gradientUnits="userSpaceOnUse" gradientTransform="translate(31 35.0057) rotate(90) scale(67.103 67.3971)">
<stop stop-color="#3662FF" stop-opacity="0.5"/>
<stop offset="1" stop-color="#070707" stop-opacity="0"/>
</radialGradient>
</defs>
</svg>
