<svg width="63" height="64" viewBox="0 0 63 64" fill="none" xmlns="http://www.w3.org/2000/svg">
<path d="M31.5 0.404968C14.1065 0.404968 0 14.5115 0 31.905C0 49.2984 14.1065 63.405 31.5 63.405C48.8935 63.405 63 49.2984 63 31.905C63 14.5115 48.8935 0.404968 31.5 0.404968ZM34.0337 57.7898C33.8967 57.7898 33.7598 57.7898 33.5543 57.8582V42.9984C37.1152 42.93 40.3337 42.8615 43.2783 42.6561C40.6761 50.668 35.8141 56.0093 34.0337 57.7898ZM28.9663 57.7898C27.1174 55.9408 22.3239 50.5995 19.7217 42.6561C22.5978 42.8615 25.8848 42.9984 29.4457 42.9984V57.8582C29.3087 57.8582 29.1717 57.7898 28.9663 57.7898ZM5.47826 31.905C5.47826 30.193 5.6837 28.4811 5.95761 26.8376C7.46413 26.5637 10.3402 26.1528 14.3804 25.7419C14.038 27.7278 13.8326 29.7821 13.8326 31.9734C13.8326 34.1648 14.038 36.2191 14.312 38.1365C10.3402 37.7256 7.39565 37.3148 5.88913 37.0408C5.6837 35.3289 5.47826 33.6169 5.47826 31.905ZM18.0098 31.905C18.0098 29.5767 18.2837 27.3854 18.6946 25.3311C21.8446 25.1256 25.4054 24.9202 29.4457 24.9202V38.8898C25.4739 38.8213 21.8446 38.6843 18.6261 38.4104C18.2837 36.4245 18.0098 34.2332 18.0098 31.905ZM33.9652 6.02019C35.8141 7.8691 40.5391 13.3474 43.2098 21.1539C40.3337 20.9484 37.1152 20.8115 33.5543 20.8115V5.95171C33.6913 5.95171 33.8283 6.02019 33.9652 6.02019ZM29.4457 5.95171V20.8115C25.8848 20.88 22.6663 20.9484 19.7902 21.1539C22.3924 13.3474 27.1859 7.8691 28.9663 6.02019C29.1717 6.02019 29.3087 5.95171 29.4457 5.95171ZM33.5543 38.8898V24.9202C37.5261 24.9887 41.1554 25.1256 44.3054 25.3311C44.7163 27.3854 44.9902 29.5767 44.9902 31.905C44.9902 34.2332 44.7848 36.4245 44.3739 38.4789C41.2239 38.6843 37.5946 38.8213 33.5543 38.8898ZM48.5511 25.7419C52.5913 26.1528 55.4674 26.5637 56.9739 26.8376C57.3163 28.4811 57.5217 30.193 57.5217 31.905C57.5217 33.6169 57.3163 35.3289 57.0424 36.9724C55.5359 37.2463 52.6598 37.6571 48.6196 38.068C48.962 36.0821 49.0989 34.0278 49.0989 31.8365C49.0989 29.7821 48.8935 27.6593 48.5511 25.7419ZM55.7413 22.455C53.8239 22.1811 51.0848 21.8387 47.5924 21.4963C45.9489 15.6071 43.0728 10.8821 40.6761 7.52671C47.5924 10.1289 53.0707 15.6071 55.7413 22.455ZM22.3239 7.52671C19.8587 10.8137 17.0511 15.5387 15.4076 21.4278C11.9837 21.7017 9.24457 22.1126 7.2587 22.3865C9.92935 15.6071 15.4761 10.1289 22.3239 7.52671ZM7.2587 41.355C9.17609 41.6289 11.9152 41.9713 15.3391 42.3137C16.9826 48.2028 19.7217 52.9278 22.187 56.2148C15.3391 53.5441 9.92935 48.1343 7.2587 41.355ZM40.813 56.2148C43.2783 52.9278 46.0174 48.2713 47.6609 42.3821C51.0848 42.1082 53.8239 41.6974 55.7413 41.4234C53.0707 48.1343 47.6609 53.5441 40.813 56.2148Z" fill="url(#paint0_radial_31_67)"/>
<path d="M34.0337 58.2218H34.2127L34.3392 58.0953C36.1429 56.2915 41.0573 50.8931 43.6892 42.7895L43.887 42.1805L43.2482 42.225C40.3163 42.4296 37.1088 42.4979 33.546 42.5665L33.1223 42.5746V42.9984V57.8582V58.4577L33.691 58.2681C33.7648 58.2435 33.8206 58.2329 33.8674 58.2277C33.9175 58.2222 33.9635 58.2218 34.0337 58.2218ZM28.6608 58.0953L28.7873 58.2218H28.9663C29.0201 58.2218 29.068 58.2302 29.1379 58.2458C29.1439 58.2471 29.1507 58.2486 29.1581 58.2504C29.2201 58.2646 29.3317 58.2903 29.4457 58.2903H29.8777V57.8582V42.9984V42.5664H29.4457C25.8957 42.5664 22.619 42.4298 19.7525 42.2251L19.1109 42.1793L19.3111 42.7906C21.9427 50.8237 26.787 56.2215 28.6608 58.0953ZM5.88032 26.4125L5.58137 26.4668L5.53142 26.7665C5.2555 28.4221 5.0462 30.1599 5.0462 31.905C5.0462 33.6428 5.2542 35.3762 5.45861 37.0796L5.46014 37.0923L5.49813 37.4089L5.81184 37.4659C7.33405 37.7427 10.291 38.1549 14.2675 38.5663L14.8179 38.6232L14.7397 38.0754C14.4676 36.1707 14.2647 34.1379 14.2647 31.9734C14.2647 29.8097 14.4675 27.7801 14.8062 25.8153L14.9029 25.2545L14.3367 25.3121C10.2903 25.7236 7.40206 26.1358 5.88032 26.4125ZM18.6664 24.8999L18.3359 24.9215L18.2709 25.2463C17.8557 27.3225 17.5777 29.5426 17.5777 31.905C17.5777 34.2665 17.8555 36.4841 18.2003 38.4838L18.257 38.8126L18.5894 38.8409C21.8219 39.116 25.4622 39.2532 29.4382 39.3218L29.8777 39.3293V38.8898V24.9202V24.4881H29.4457C25.391 24.4881 21.8188 24.6943 18.6664 24.8999ZM34.2707 5.71467L34.1442 5.58812H33.9653C33.9654 5.58811 33.9589 5.58796 33.9421 5.58482C33.9227 5.58118 33.901 5.57589 33.8646 5.56678C33.8612 5.56593 33.8575 5.56501 33.8537 5.56404C33.792 5.54849 33.6776 5.51964 33.5543 5.51964H33.1223V5.95171V20.8115V21.2436H33.5543C37.1041 21.2436 40.3122 21.3801 43.179 21.5848L43.8298 21.6313L43.6186 21.014C40.9199 13.1256 36.149 7.59295 34.2707 5.71467ZM29.8777 5.95171V5.51964H29.4457C29.3317 5.51964 29.2201 5.54533 29.1581 5.55957C29.1506 5.56129 29.1439 5.56285 29.1379 5.56417C29.068 5.57971 29.0201 5.58812 28.9663 5.58812H28.7825L28.6551 5.72049C26.8535 7.59134 22.0114 13.1242 19.3803 21.0173L19.1758 21.6309L19.821 21.5848C22.6839 21.3804 25.8909 21.312 29.454 21.2435L29.8777 21.2353V20.8115V5.95171ZM33.1223 38.8898V39.3292L33.5617 39.3218C37.6069 39.2532 41.2434 39.116 44.402 38.91L44.7326 38.8885L44.7976 38.5636C45.2146 36.4785 45.4223 34.2586 45.4223 31.905C45.4223 29.5426 45.1443 27.3225 44.7291 25.2463L44.6641 24.9215L44.3336 24.8999C41.175 24.6939 37.5385 24.5567 33.5618 24.4882L33.1223 24.4806V24.9202V38.8898ZM48.5948 25.3121L48.0251 25.2541L48.1258 25.8179C48.464 27.712 48.6668 29.8093 48.6668 31.8365C48.6668 34.01 48.531 36.0389 48.1938 37.9946L48.0971 38.5554L48.6633 38.4979C52.7097 38.0864 55.5979 37.6741 57.1197 37.3975L57.4186 37.3431L57.4686 37.0434C57.7445 35.3879 57.9538 33.65 57.9538 31.905C57.9538 30.159 57.7444 28.4172 57.3969 26.7495L57.3375 26.4645L57.0512 26.4125C55.5295 26.1358 52.6412 25.7236 48.5948 25.3121ZM55.6802 22.8827L56.4127 22.9873L56.1438 22.298C53.4292 15.3375 47.8609 9.76827 40.8282 7.12232L39.4991 6.62223L40.3245 7.77784C42.7056 11.1114 45.5514 15.79 47.1762 21.6124L47.2558 21.8974L47.5502 21.9263C51.0368 22.2681 53.7696 22.6097 55.6802 22.8827ZM22.6696 7.78595L23.5641 6.59323L22.1704 7.12282C15.2093 9.76806 9.57208 15.3352 6.8567 22.2281L6.58594 22.9154L7.31773 22.8145C7.55597 22.7816 7.80475 22.7469 8.06398 22.7106C9.97009 22.4441 12.4413 22.0985 15.4421 21.8585L15.7427 21.8344L15.8238 21.5439C17.4494 15.7188 20.2278 11.0416 22.6696 7.78595ZM7.3198 40.9272L6.58443 40.8222L6.8567 41.5133C9.57145 48.4046 15.07 53.9029 22.03 56.6173L23.4419 57.168L22.5326 55.9555C20.0931 52.7029 17.3817 48.0256 15.7553 42.1975L15.6759 41.9131L15.3821 41.8837C11.9636 41.5419 9.23056 41.2002 7.3198 40.9272ZM40.4674 55.9555L39.5581 57.168L40.97 56.6173C47.9295 53.9031 53.4278 48.4054 56.1427 41.5832L56.4185 40.8903L55.6802 40.9957C55.5373 41.0161 55.3898 41.0373 55.238 41.0591C53.3511 41.33 50.781 41.6991 47.6264 41.9515L47.3258 41.9755L47.2447 42.266C45.6187 48.0925 42.908 52.7013 40.4674 55.9555ZM0.432065 31.905C0.432065 14.7501 14.3451 0.837033 31.5 0.837033C48.6549 0.837033 62.5679 14.7501 62.5679 31.905C62.5679 49.0598 48.6549 62.9729 31.5 62.9729C14.3451 62.9729 0.432065 49.0598 0.432065 31.905ZM29.4457 6.38377C29.4457 6.38377 29.4458 6.38377 29.4458 6.38377H29.4457Z" stroke="#3C96FF" stroke-opacity="0.76" stroke-width="0.86413"/>
<defs>
<radialGradient id="paint0_radial_31_67" cx="0" cy="0" r="1" gradientUnits="userSpaceOnUse" gradientTransform="translate(31.5 36.5584) rotate(90) scale(69.3031 68.4841)">
<stop stop-color="#36DBFF" stop-opacity="0.5"/>
<stop offset="1" stop-color="#070707" stop-opacity="0"/>
</radialGradient>
</defs>
</svg>
