<svg width="80" height="81" viewBox="0 0 80 81" fill="none" xmlns="http://www.w3.org/2000/svg">
<mask id="mask0_31_69" style="mask-type:luminance" maskUnits="userSpaceOnUse" x="0" y="0" width="80" height="81">
<path d="M0 0.749207H79.5V80.2492H0V0.749207Z" fill="white"/>
<path d="M0.5 1.24921H79V79.7492H0.5V1.24921Z" stroke="white"/>
</mask>
<g mask="url(#mask0_31_69)">
<path d="M77.8417 22.3024C77.4038 20.7152 76.5296 19.2641 75.3069 18.0944C74.084 16.9248 72.5556 16.0779 70.8745 15.6384C64.6539 14.0017 39.7297 14.0017 39.7297 14.0017C29.337 13.8843 18.9471 14.405 8.62649 15.5605C6.9449 16.032 5.41893 16.8985 4.19264 18.0781C2.96637 19.2578 2.08023 20.7116 1.61789 22.3024C0.502882 28.3114 -0.0383937 34.4022 0.000515665 40.5015C-0.0410619 46.6012 0.500235 52.6922 1.61789 58.7011C2.07071 60.2874 2.95494 61.736 4.18373 62.9046C5.4125 64.0729 6.94354 64.9206 8.62649 65.3648C14.9301 67.0015 39.7297 67.0015 39.7297 67.0015C50.1363 67.1191 60.5401 66.5984 70.8745 65.4427C72.5556 65.0034 74.084 64.1564 75.3069 62.9868C76.5296 61.8171 77.4038 60.3659 77.8417 58.7789C78.9851 52.7727 79.5403 46.681 79.5006 40.5797C79.5864 34.4509 79.0305 28.329 77.8417 22.3024ZM31.8088 51.8422V29.1612L52.5444 40.5015L31.8088 51.8422Z" fill="url(#paint0_radial_31_69)"/>
<path d="M39.7297 67.0015C39.7297 66.5015 39.7296 66.5015 39.7295 66.5015H39.7286H39.7253L39.712 66.5015L39.6589 66.5015L39.4507 66.5011C39.268 66.5007 38.9989 66.4999 38.6541 66.4983C37.9645 66.4951 36.9722 66.4887 35.7615 66.476C33.3401 66.4504 30.0465 66.3993 26.5566 66.2971C23.0659 66.1949 19.3829 66.0418 16.1814 65.8123C12.9678 65.582 10.2796 65.2772 8.75361 64.8812C7.14992 64.4579 5.69429 63.6509 4.52831 62.5423C3.36811 61.4389 2.53463 60.0755 2.10509 58.5862C0.996202 52.6161 0.459198 46.5648 0.500504 40.5049H0.500548L0.500506 40.4983C0.461852 34.4391 0.99877 28.3883 2.1049 22.4184C2.54404 20.9231 3.38035 19.5533 4.53927 18.4385L4.21085 18.0971L4.53927 18.4385C5.69513 17.3266 7.13387 16.5051 8.72289 16.0528C19.0097 14.9028 29.3655 14.3846 39.7241 14.5016V14.5017H39.7297V14.0017C39.7297 14.5017 39.7298 14.5017 39.73 14.5017L39.7308 14.5017L39.7341 14.5017L39.7475 14.5017L39.8009 14.5017L40.01 14.502C40.1937 14.5024 40.4641 14.5032 40.8105 14.5048C41.5033 14.508 42.5002 14.5144 43.7161 14.5272C46.1479 14.5528 49.4545 14.6039 52.9548 14.706C56.4559 14.8082 60.1467 14.9614 63.3481 15.1909C66.5633 15.4213 69.2433 15.7262 70.7473 16.122L70.748 16.1222C72.3491 16.5407 73.8015 17.3465 74.9613 18.4557C76.116 19.5604 76.9399 20.9268 77.3548 22.4176C78.5344 28.4042 79.0858 34.4851 79.0006 40.5727L79.0005 40.5727L79.0006 40.583C79.0401 46.6449 78.4892 52.6974 77.3543 58.6652C76.9394 60.1552 76.1157 61.5211 74.9614 62.6254C73.8098 63.7267 72.37 64.529 70.7826 64.9498C60.4805 66.1004 50.1093 66.6188 39.7354 66.5016V66.5015H39.7297V67.0015ZM31.3088 51.8422V52.6855L32.0487 52.2809L52.7844 40.9402L53.5865 40.5015L52.7844 40.0628L32.0487 28.7225L31.3088 28.3179V29.1612V51.8422Z" stroke="#FF3C3C" stroke-opacity="0.76"/>
</g>
<defs>
<radialGradient id="paint0_radial_31_69" cx="0" cy="0" r="1" gradientUnits="userSpaceOnUse" gradientTransform="translate(39.7537 44.4188) rotate(90) scale(58.3382 86.4323)">
<stop stop-color="#FF3636" stop-opacity="0.5"/>
<stop offset="1" stop-color="#070707" stop-opacity="0"/>
</radialGradient>
</defs>
</svg>
